<?xml version='1.0' encoding='UTF-8'?>
<!DOCTYPE svg PUBLIC "-//W3C//DTD SVG 1.0//EN" "http://www.w3.org/TR/2001/REC-SVG-20010904/DTD/svg10.dtd">
<svg viewBox="0 0 640 1121" xmlns="http://www.w3.org/2000/svg" xmlns:inkspace="http://www.inkscape.org/namespaces/inkscape" xmlns:xlink="http://www.w3.org/1999/xlink">
  <defs id="defs_block">
    <filter height="1.504" id="filter_blur" inkspace:collect="always" width="1.1575" x="-0.07875" y="-0.252">
      <feGaussianBlur id="feGaussianBlur3780" inkspace:collect="always" stdDeviation="4.2" />
    </filter>
  </defs>
  <title>blockdiag</title>
  <desc>seqdiag
{
	span_height = 0;
	activation = none;
	default_fontsize = 12;
	group { T [label="Teacher"]; color = "#ffcccc"; }
	group { S [label="Student"]; color = "#ccffcc"; }
	group { PC[label="PC"];      color = "#ccccff"; }

	S -&gt; PC [label="PCを起動する"]
	S --&gt; T [label="PCの起動を確認する"]

	=== 導入(5分) ===
	T -&gt; S [label="本時の内容を伝える"]
	S --&gt; T [label="Squeakを導入したか確認する"]

	=== 展開: オブジェクトの作成(15分) ===
	T =&gt; S [label="Squeakの起動方法を説明する", return="Squeakの起動を確認する"]
	{
		S -&gt; PC [label="Squeakを起動する"]
	}
	T =&gt; S [label="オブジェクトの作り方を説明する", return="オブジェクトの作成を確認する"]
	{
		S -&gt; PC [label="車のオブジェクトを作る", leftnote="塗りつぶした部分がオブジェクトとなる\nので、背景を塗らないよう注意する"]
	}

	=== 展開: オブジェクトの操作(15分) ===
	T =&gt; S [label="オブジェクトに対して行える命令を説明する", return="逐次処理を理解する"]
	{
		S =&gt; PC [label="各種命令を実行する", return="車が動くことを確認する"]
		S =&gt; PC [label="命令を並べたスクリプトを作る", return="逐次処理を実行する", leftnote="スクリプトに並べた命令は、並列でなく\n直列に実行されることを説明する"]
	}
	T =&gt; S [label="スクリプトを反復実行する方法を説明する", return="反復処理を理解する"]
	{
		S =&gt; PC [label="スクリプトを反復実行する", return="反復処理を実行する"]
	}

	=== 展開: オブジェクト間のメッセージ交換(10分) ===
	T =&gt; S [label="オブジェクト間のメッセージ交換を学ぶことを伝える", return="メッセージ交換に基づくプログラミング手法を理解する"]
	{
		S -&gt; PC [label="ハンドルのオブジェクトを作る"]
		S =&gt; PC [label="ハンドルの向きに応じて車が曲がるよう、スクリプトを修正する", return="オブジェクト間通信を実行する"]
	}

	=== 展開: プロジェクトの保存(5分) ===
	T =&gt; S [label="プロジェクトの保存方法を伝える", return="プロジェクトの保存を確認する"]
	{
		S -&gt; PC [label="作成中のプロジェクトを保存する", leftnote="休憩中に問題が生じないよう、\n1時限目の最後に行う"]
	}
}
</desc>
  <polygon fill="rgb(0,0,0)" points="91,351 299,351 307,359 307,382 91,382 91,351" stroke="rgb(0,0,0)" style="filter:url(#filter_blur);opacity:0.7;fill-opacity:1" />
  <polygon fill="rgb(0,0,0)" points="92,542 299,542 307,550 307,572 92,572 92,542" stroke="rgb(0,0,0)" style="filter:url(#filter_blur);opacity:0.7;fill-opacity:1" />
  <polygon fill="rgb(0,0,0)" points="131,1052 299,1052 307,1060 307,1082 131,1082 131,1052" stroke="rgb(0,0,0)" style="filter:url(#filter_blur);opacity:0.7;fill-opacity:1" />
  <rect fill="rgb(255,204,204)" height="1097" style="filter:url(#filter_blur)" width="144" x="56" y="0" />
  <rect fill="rgb(204,255,204)" height="1097" style="filter:url(#filter_blur)" width="144" x="248" y="0" />
  <rect fill="rgb(204,204,255)" height="1097" style="filter:url(#filter_blur)" width="144" x="440" y="0" />
  <rect fill="rgb(0,0,0)" height="40" stroke="rgb(0,0,0)" style="filter:url(#filter_blur);opacity:0.7;fill-opacity:1" width="128" x="67" y="6" />
  <rect fill="rgb(0,0,0)" height="40" stroke="rgb(0,0,0)" style="filter:url(#filter_blur);opacity:0.7;fill-opacity:1" width="128" x="259" y="6" />
  <rect fill="rgb(0,0,0)" height="40" stroke="rgb(0,0,0)" style="filter:url(#filter_blur);opacity:0.7;fill-opacity:1" width="128" x="451" y="6" />
  <path d="M 128 40 L 128 1129" fill="none" stroke="rgb(0,0,0)" stroke-dasharray="8 4" />
  <path d="M 320 40 L 320 1129" fill="none" stroke="rgb(0,0,0)" stroke-dasharray="8 4" />
  <path d="M 512 40 L 512 1129" fill="none" stroke="rgb(0,0,0)" stroke-dasharray="8 4" />
  <rect fill="rgb(255,255,255)" height="40" stroke="rgb(0,0,0)" width="128" x="64" y="0" />
  <text fill="rgb(0,0,0)" font-family="sans-serif" font-size="12" font-style="normal" font-weight="normal" text-anchor="middle" textLength="47" x="128.5" y="26">Teacher</text>
  <rect fill="rgb(255,255,255)" height="40" stroke="rgb(0,0,0)" width="128" x="256" y="0" />
  <text fill="rgb(0,0,0)" font-family="sans-serif" font-size="12" font-style="normal" font-weight="normal" text-anchor="middle" textLength="44" x="320.0" y="26">Student</text>
  <rect fill="rgb(255,255,255)" height="40" stroke="rgb(0,0,0)" width="128" x="448" y="0" />
  <text fill="rgb(0,0,0)" font-family="sans-serif" font-size="12" font-style="normal" font-weight="normal" text-anchor="middle" textLength="16" x="512.0" y="26">PC</text>
  <path d="M 328 56 L 504 56" fill="none" stroke="rgb(0,0,0)" />
  <polygon fill="rgb(0,0,0)" points="496,52 504,56 496,60" stroke="rgb(0,0,0)" />
  <path d="M 136 82 L 312 82" fill="none" stroke="rgb(0,0,0)" stroke-dasharray="4" />
  <polygon fill="rgb(0,0,0)" points="144,78 136,82 144,86" stroke="rgb(0,0,0)" />
  <path d="M 136 148 L 312 148" fill="none" stroke="rgb(0,0,0)" />
  <polygon fill="rgb(0,0,0)" points="304,144 312,148 304,152" stroke="rgb(0,0,0)" />
  <path d="M 136 175 L 312 175" fill="none" stroke="rgb(0,0,0)" stroke-dasharray="4" />
  <polygon fill="rgb(0,0,0)" points="144,171 136,175 144,179" stroke="rgb(0,0,0)" />
  <path d="M 136 242 L 312 242" fill="none" stroke="rgb(0,0,0)" />
  <polygon fill="rgb(0,0,0)" points="304,238 312,242 304,246" stroke="rgb(0,0,0)" />
  <path d="M 328 269 L 504 269" fill="none" stroke="rgb(0,0,0)" />
  <polygon fill="rgb(0,0,0)" points="496,265 504,269 496,273" stroke="rgb(0,0,0)" />
  <path d="M 136 296 L 312 296" fill="none" stroke="rgb(0,0,0)" stroke-dasharray="4" />
  <polygon fill="rgb(0,0,0)" points="144,292 136,296 144,300" stroke="rgb(0,0,0)" />
  <path d="M 136 335 L 312 335" fill="none" stroke="rgb(0,0,0)" />
  <polygon fill="rgb(0,0,0)" points="304,331 312,335 304,339" stroke="rgb(0,0,0)" />
  <path d="M 328 360 L 504 360" fill="none" stroke="rgb(0,0,0)" />
  <polygon fill="rgb(0,0,0)" points="496,356 504,360 496,364" stroke="rgb(0,0,0)" />
  <polygon fill="rgb(255,182,193)" points="88,345 296,345 304,353 304,376 88,376 88,345" stroke="rgb(0,0,0)" />
  <path d="M 296 345 L 296 353" fill="none" stroke="rgb(0,0,0)" />
  <path d="M 296 353 L 304 353" fill="none" stroke="rgb(0,0,0)" />
  <text fill="rgb(0,0,0)" font-family="sans-serif" font-size="12" font-style="normal" font-weight="normal" text-anchor="middle" textLength="192" x="192.0" y="359">塗りつぶした部分がオブジェクトとなる</text>
  <text fill="rgb(0,0,0)" font-family="sans-serif" font-size="12" font-style="normal" font-weight="normal" text-anchor="middle" textLength="171" x="181.5" y="374">ので、背景を塗らないよう注意する</text>
  <path d="M 136 392 L 312 392" fill="none" stroke="rgb(0,0,0)" stroke-dasharray="4" />
  <polygon fill="rgb(0,0,0)" points="144,388 136,392 144,396" stroke="rgb(0,0,0)" />
  <path d="M 136 473 L 312 473" fill="none" stroke="rgb(0,0,0)" />
  <polygon fill="rgb(0,0,0)" points="304,469 312,473 304,477" stroke="rgb(0,0,0)" />
  <path d="M 328 500 L 504 500" fill="none" stroke="rgb(0,0,0)" />
  <polygon fill="rgb(0,0,0)" points="496,496 504,500 496,504" stroke="rgb(0,0,0)" />
  <path d="M 328 526 L 504 526" fill="none" stroke="rgb(0,0,0)" stroke-dasharray="4" />
  <polygon fill="rgb(0,0,0)" points="336,522 328,526 336,530" stroke="rgb(0,0,0)" />
  <path d="M 328 551 L 504 551" fill="none" stroke="rgb(0,0,0)" />
  <polygon fill="rgb(0,0,0)" points="496,547 504,551 496,555" stroke="rgb(0,0,0)" />
  <polygon fill="rgb(255,182,193)" points="89,536 296,536 304,544 304,566 89,566 89,536" stroke="rgb(0,0,0)" />
  <path d="M 296 536 L 296 544" fill="none" stroke="rgb(0,0,0)" />
  <path d="M 296 544 L 304 544" fill="none" stroke="rgb(0,0,0)" />
  <text fill="rgb(0,0,0)" font-family="sans-serif" font-size="12" font-style="normal" font-weight="normal" text-anchor="middle" textLength="191" x="192.5" y="550">スクリプトに並べた命令は、並列でなく</text>
  <text fill="rgb(0,0,0)" font-family="sans-serif" font-size="12" font-style="normal" font-weight="normal" text-anchor="middle" textLength="165" x="179.5" y="564">直列に実行されることを説明する</text>
  <path d="M 328 583 L 504 583" fill="none" stroke="rgb(0,0,0)" stroke-dasharray="4" />
  <polygon fill="rgb(0,0,0)" points="336,579 328,583 336,587" stroke="rgb(0,0,0)" />
  <path d="M 136 610 L 312 610" fill="none" stroke="rgb(0,0,0)" stroke-dasharray="4" />
  <polygon fill="rgb(0,0,0)" points="144,606 136,610 144,614" stroke="rgb(0,0,0)" />
  <path d="M 136 651 L 312 651" fill="none" stroke="rgb(0,0,0)" />
  <polygon fill="rgb(0,0,0)" points="304,647 312,651 304,655" stroke="rgb(0,0,0)" />
  <path d="M 328 677 L 504 677" fill="none" stroke="rgb(0,0,0)" />
  <polygon fill="rgb(0,0,0)" points="496,673 504,677 496,681" stroke="rgb(0,0,0)" />
  <path d="M 328 703 L 504 703" fill="none" stroke="rgb(0,0,0)" stroke-dasharray="4" />
  <polygon fill="rgb(0,0,0)" points="336,699 328,703 336,707" stroke="rgb(0,0,0)" />
  <path d="M 136 729 L 312 729" fill="none" stroke="rgb(0,0,0)" stroke-dasharray="4" />
  <polygon fill="rgb(0,0,0)" points="144,725 136,729 144,733" stroke="rgb(0,0,0)" />
  <path d="M 136 809 L 312 809" fill="none" stroke="rgb(0,0,0)" />
  <polygon fill="rgb(0,0,0)" points="304,805 312,809 304,813" stroke="rgb(0,0,0)" />
  <path d="M 328 835 L 504 835" fill="none" stroke="rgb(0,0,0)" />
  <polygon fill="rgb(0,0,0)" points="496,831 504,835 496,839" stroke="rgb(0,0,0)" />
  <path d="M 328 875 L 504 875" fill="none" stroke="rgb(0,0,0)" />
  <polygon fill="rgb(0,0,0)" points="496,871 504,875 496,879" stroke="rgb(0,0,0)" />
  <path d="M 328 901 L 504 901" fill="none" stroke="rgb(0,0,0)" stroke-dasharray="4" />
  <polygon fill="rgb(0,0,0)" points="336,897 328,901 336,905" stroke="rgb(0,0,0)" />
  <path d="M 136 941 L 312 941" fill="none" stroke="rgb(0,0,0)" stroke-dasharray="4" />
  <polygon fill="rgb(0,0,0)" points="144,937 136,941 144,945" stroke="rgb(0,0,0)" />
  <path d="M 136 1021 L 312 1021" fill="none" stroke="rgb(0,0,0)" />
  <polygon fill="rgb(0,0,0)" points="304,1017 312,1021 304,1025" stroke="rgb(0,0,0)" />
  <path d="M 328 1061 L 504 1061" fill="none" stroke="rgb(0,0,0)" />
  <polygon fill="rgb(0,0,0)" points="496,1057 504,1061 496,1065" stroke="rgb(0,0,0)" />
  <polygon fill="rgb(255,182,193)" points="128,1046 296,1046 304,1054 304,1076 128,1076 128,1046" stroke="rgb(0,0,0)" />
  <path d="M 296 1046 L 296 1054" fill="none" stroke="rgb(0,0,0)" />
  <path d="M 296 1054 L 304 1054" fill="none" stroke="rgb(0,0,0)" />
  <text fill="rgb(0,0,0)" font-family="sans-serif" font-size="12" font-style="normal" font-weight="normal" text-anchor="middle" textLength="152" x="212.0" y="1060">休憩中に問題が生じないよう、</text>
  <text fill="rgb(0,0,0)" font-family="sans-serif" font-size="12" font-style="normal" font-weight="normal" text-anchor="middle" textLength="112" x="192.0" y="1074">1時限目の最後に行う</text>
  <path d="M 136 1087 L 312 1087" fill="none" stroke="rgb(0,0,0)" stroke-dasharray="4" />
  <polygon fill="rgb(0,0,0)" points="144,1083 136,1087 144,1091" stroke="rgb(0,0,0)" />
  <text fill="rgb(0,0,0)" font-family="sans-serif" font-size="12" font-style="normal" font-weight="normal" text-anchor="middle" textLength="71" x="367.5" y="54">PCを起動する</text>
  <text fill="rgb(0,0,0)" font-family="sans-serif" font-size="12" font-style="normal" font-weight="normal" text-anchor="middle" textLength="107" x="258.5" y="80">PCの起動を確認する</text>
  <text fill="rgb(0,0,0)" font-family="sans-serif" font-size="12" font-style="normal" font-weight="normal" text-anchor="middle" textLength="103" x="191.5" y="146">本時の内容を伝える</text>
  <text fill="rgb(0,0,0)" font-family="sans-serif" font-size="12" font-style="normal" font-weight="normal" text-anchor="middle" textLength="152" x="236.0" y="173">Squeakを導入したか確認する</text>
  <text fill="rgb(0,0,0)" font-family="sans-serif" font-size="12" font-style="normal" font-weight="normal" text-anchor="middle" textLength="156" x="218.0" y="240">Squeakの起動方法を説明する</text>
  <text fill="rgb(0,0,0)" font-family="sans-serif" font-size="12" font-style="normal" font-weight="normal" text-anchor="middle" textLength="96" x="380.0" y="267">Squeakを起動する</text>
  <text fill="rgb(0,0,0)" font-family="sans-serif" font-size="12" font-style="normal" font-weight="normal" text-anchor="middle" textLength="132" x="246.0" y="294">Squeakの起動を確認する</text>
  <text fill="rgb(0,0,0)" font-family="sans-serif" font-size="12" font-style="normal" font-weight="normal" text-anchor="middle" textLength="161" x="220.5" y="327">オブジェクトの作り方を説明する</text>
  <text fill="rgb(0,0,0)" font-family="sans-serif" font-size="12" font-style="normal" font-weight="normal" text-anchor="middle" textLength="117" x="390.5" y="358">車のオブジェクトを作る</text>
  <text fill="rgb(0,0,0)" font-family="sans-serif" font-size="12" font-style="normal" font-weight="normal" text-anchor="middle" textLength="152" x="236.0" y="390">オブジェクトの作成を確認する</text>
  <text fill="rgb(0,0,0)" font-family="sans-serif" font-size="12" font-style="normal" font-weight="normal" text-anchor="middle" textLength="170" x="225.0" y="456">オブジェクトに対して行える命令を</text>
  <text fill="rgb(0,0,0)" font-family="sans-serif" font-size="12" font-style="normal" font-weight="normal" text-anchor="middle" textLength="45" x="162.5" y="471">説明する</text>
  <text fill="rgb(0,0,0)" font-family="sans-serif" font-size="12" font-style="normal" font-weight="normal" text-anchor="middle" textLength="103" x="383.5" y="498">各種命令を実行する</text>
  <text fill="rgb(0,0,0)" font-family="sans-serif" font-size="12" font-style="normal" font-weight="normal" text-anchor="middle" textLength="118" x="445.0" y="524">車が動くことを確認する</text>
  <text fill="rgb(0,0,0)" font-family="sans-serif" font-size="12" font-style="normal" font-weight="normal" text-anchor="middle" textLength="151" x="407.5" y="549">命令を並べたスクリプトを作る</text>
  <text fill="rgb(0,0,0)" font-family="sans-serif" font-size="12" font-style="normal" font-weight="normal" text-anchor="middle" textLength="103" x="452.5" y="581">逐次処理を実行する</text>
  <text fill="rgb(0,0,0)" font-family="sans-serif" font-size="12" font-style="normal" font-weight="normal" text-anchor="middle" textLength="103" x="260.5" y="608">逐次処理を理解する</text>
  <text fill="rgb(0,0,0)" font-family="sans-serif" font-size="12" font-style="normal" font-weight="normal" text-anchor="middle" textLength="163" x="221.5" y="634">スクリプトを反復実行する方法を</text>
  <text fill="rgb(0,0,0)" font-family="sans-serif" font-size="12" font-style="normal" font-weight="normal" text-anchor="middle" textLength="45" x="162.5" y="649">説明する</text>
  <text fill="rgb(0,0,0)" font-family="sans-serif" font-size="12" font-style="normal" font-weight="normal" text-anchor="middle" textLength="129" x="396.5" y="675">スクリプトを反復実行する</text>
  <text fill="rgb(0,0,0)" font-family="sans-serif" font-size="12" font-style="normal" font-weight="normal" text-anchor="middle" textLength="103" x="452.5" y="701">反復処理を実行する</text>
  <text fill="rgb(0,0,0)" font-family="sans-serif" font-size="12" font-style="normal" font-weight="normal" text-anchor="middle" textLength="103" x="260.5" y="727">反復処理を理解する</text>
  <text fill="rgb(0,0,0)" font-family="sans-serif" font-size="12" font-style="normal" font-weight="normal" text-anchor="middle" textLength="170" x="225.0" y="793">オブジェクト間のメッセージ交換を</text>
  <text fill="rgb(0,0,0)" font-family="sans-serif" font-size="12" font-style="normal" font-weight="normal" text-anchor="middle" textLength="86" x="183.0" y="807">学ぶことを伝える</text>
  <text fill="rgb(0,0,0)" font-family="sans-serif" font-size="12" font-style="normal" font-weight="normal" text-anchor="middle" textLength="148" x="406.0" y="833">ハンドルのオブジェクトを作る</text>
  <text fill="rgb(0,0,0)" font-family="sans-serif" font-size="12" font-style="normal" font-weight="normal" text-anchor="middle" textLength="168" x="416.0" y="859">ハンドルの向きに応じて車が曲が</text>
  <text fill="rgb(0,0,0)" font-family="sans-serif" font-size="12" font-style="normal" font-weight="normal" text-anchor="middle" textLength="140" x="402.0" y="873">るよう、スクリプトを修正する</text>
  <text fill="rgb(0,0,0)" font-family="sans-serif" font-size="12" font-style="normal" font-weight="normal" text-anchor="middle" textLength="152" x="428.0" y="899">オブジェクト間通信を実行する</text>
  <text fill="rgb(0,0,0)" font-family="sans-serif" font-size="12" font-style="normal" font-weight="normal" text-anchor="middle" textLength="161" x="231.5" y="925">メッセージ交換に基づくプログラ</text>
  <text fill="rgb(0,0,0)" font-family="sans-serif" font-size="12" font-style="normal" font-weight="normal" text-anchor="middle" textLength="109" x="257.5" y="939">ミング手法を理解する</text>
  <text fill="rgb(0,0,0)" font-family="sans-serif" font-size="12" font-style="normal" font-weight="normal" text-anchor="middle" textLength="164" x="222.0" y="1013">プロジェクトの保存方法を伝える</text>
  <text fill="rgb(0,0,0)" font-family="sans-serif" font-size="12" font-style="normal" font-weight="normal" text-anchor="middle" textLength="164" x="414.0" y="1053">作成中のプロジェクトを保存する</text>
  <text fill="rgb(0,0,0)" font-family="sans-serif" font-size="12" font-style="normal" font-weight="normal" text-anchor="middle" textLength="152" x="236.0" y="1085">プロジェクトの保存を確認する</text>
  <path d="M 40 110 L 286 110" fill="none" stroke="rgb(0,0,0)" />
  <path d="M 40 114 L 286 114" fill="none" stroke="rgb(0,0,0)" />
  <path d="M 354 110 L 600 110" fill="none" stroke="rgb(0,0,0)" />
  <path d="M 354 114 L 600 114" fill="none" stroke="rgb(0,0,0)" />
  <rect fill="rgb(208,208,208)" height="20" stroke="rgb(0,0,0)" width="68" x="286" y="102" />
  <text fill="rgb(0,0,0)" font-family="sans-serif" font-size="11" font-style="normal" font-weight="normal" text-anchor="middle" textLength="48" x="320.0" y="118">導入(5分)</text>
  <path d="M 40 203 L 234 203" fill="none" stroke="rgb(0,0,0)" />
  <path d="M 40 207 L 234 207" fill="none" stroke="rgb(0,0,0)" />
  <path d="M 405 203 L 600 203" fill="none" stroke="rgb(0,0,0)" />
  <path d="M 405 207 L 600 207" fill="none" stroke="rgb(0,0,0)" />
  <rect fill="rgb(208,208,208)" height="20" stroke="rgb(0,0,0)" width="171" x="234" y="195" />
  <text fill="rgb(0,0,0)" font-family="sans-serif" font-size="11" font-style="normal" font-weight="normal" text-anchor="middle" textLength="151" x="319.5" y="211">展開: オブジェクトの作成(15分)</text>
  <path d="M 40 420 L 234 420" fill="none" stroke="rgb(0,0,0)" />
  <path d="M 40 424 L 234 424" fill="none" stroke="rgb(0,0,0)" />
  <path d="M 405 420 L 600 420" fill="none" stroke="rgb(0,0,0)" />
  <path d="M 405 424 L 600 424" fill="none" stroke="rgb(0,0,0)" />
  <rect fill="rgb(208,208,208)" height="20" stroke="rgb(0,0,0)" width="171" x="234" y="412" />
  <text fill="rgb(0,0,0)" font-family="sans-serif" font-size="11" font-style="normal" font-weight="normal" text-anchor="middle" textLength="151" x="319.5" y="428">展開: オブジェクトの操作(15分)</text>
  <path d="M 40 757 L 206 757" fill="none" stroke="rgb(0,0,0)" />
  <path d="M 40 761 L 206 761" fill="none" stroke="rgb(0,0,0)" />
  <path d="M 434 757 L 600 757" fill="none" stroke="rgb(0,0,0)" />
  <path d="M 434 761 L 600 761" fill="none" stroke="rgb(0,0,0)" />
  <rect fill="rgb(208,208,208)" height="20" stroke="rgb(0,0,0)" width="228" x="206" y="749" />
  <text fill="rgb(0,0,0)" font-family="sans-serif" font-size="11" font-style="normal" font-weight="normal" text-anchor="middle" textLength="208" x="320.0" y="765">展開: オブジェクト間のメッセージ交換(10分)</text>
  <path d="M 40 969 L 238 969" fill="none" stroke="rgb(0,0,0)" />
  <path d="M 40 973 L 238 973" fill="none" stroke="rgb(0,0,0)" />
  <path d="M 402 969 L 600 969" fill="none" stroke="rgb(0,0,0)" />
  <path d="M 402 973 L 600 973" fill="none" stroke="rgb(0,0,0)" />
  <rect fill="rgb(208,208,208)" height="20" stroke="rgb(0,0,0)" width="164" x="238" y="961" />
  <text fill="rgb(0,0,0)" font-family="sans-serif" font-size="11" font-style="normal" font-weight="normal" text-anchor="middle" textLength="144" x="320.0" y="977">展開: プロジェクトの保存(5分)</text>
</svg>
