<?xml version='1.0' encoding='UTF-8'?>
<!DOCTYPE svg PUBLIC "-//W3C//DTD SVG 1.0//EN" "http://www.w3.org/TR/2001/REC-SVG-20010904/DTD/svg10.dtd">
<svg viewBox="0 0 640 988" xmlns="http://www.w3.org/2000/svg" xmlns:inkspace="http://www.inkscape.org/namespaces/inkscape" xmlns:xlink="http://www.w3.org/1999/xlink">
  <defs id="defs_block">
    <filter height="1.504" id="filter_blur" inkspace:collect="always" width="1.1575" x="-0.07875" y="-0.252">
      <feGaussianBlur id="feGaussianBlur3780" inkspace:collect="always" stdDeviation="4.2" />
    </filter>
  </defs>
  <title>blockdiag</title>
  <desc>seqdiag
{
	span_height = 0;
	activation = none;
	default_fontsize = 12;
	group { T [label="Teacher"]; color = "#ffcccc"; }
	group { S [label="Student"]; color = "#ccffcc"; }
	group { PC[label="PC"];      color = "#ccccff"; }

	S -&gt; PC [label="PC,Excelを起動する"]
	S --&gt; T [label="Excelの起動を確認する"]

	=== 導入(5分) ===
	T -&gt; S [label="本時の内容を伝える", note="前回までのExcel関数より高度な自動化を扱うと伝える"]

	=== 展開: VBA開発環境の準備(15分) ===
	T =&gt; S [label="VBA開発環境を準備させる", return="「開発」タブの存在を確認する"]
	{
		S -&gt; PC [label="「開発」タブを表示させる"]
	}
	T =&gt; S [label="マクロの概要を説明する", return="マクロの記録中は全操作が記録されることを理解する", note="セルの選択も記録される\nことに留意する"]
	T -&gt; S [label="記録するマクロを設定する"]
	{
		S -&gt; PC [label="マクロを起動するショートカットキーを設定する"]
	}
	T =&gt; S [label="マクロの記録内容を示す", return="記録したマクロの動作を確認する", note="最初は手順通りに操作することを勧める"]
	{
		S -&gt; PC [label="セルに枠線を引くマクロを記録する"]
		S =&gt; PC [label="記録したマクロを実行する", return="選択セルに枠線を引く"]
	}
	T =&gt; S [label="記録したマクロの内容を説明する", return="記録したマクロの内容を理解する", note="他の命令が記録されていると\nマクロの動作が異なることを伝える"]

	=== 展開: 色の符号化(15分) ===
	T -&gt; S [label="前回のcountif実習で用いたファイルを開く"]
	T -&gt; S [label="条件でセルを塗り分けるマクロを作ることを伝える"]
	T -&gt; S [label="セルを塗りつぶすマクロを記録させる", return="正しくマクロが記録されることを確認する"]
	{
		S -&gt; PC [label="セルを塗りつぶす操作をマクロに記録する", leftnote="塗りつぶす色は「標準の色」から選ばせる"]
	}
}
</desc>
  <polygon fill="rgb(0,0,0)" points="339,148 630,148 638,156 638,164 339,164 339,148" stroke="rgb(0,0,0)" style="filter:url(#filter_blur);opacity:0.7;fill-opacity:1" />
  <polygon fill="rgb(0,0,0)" points="339,328 480,328 488,336 488,359 339,359 339,328" stroke="rgb(0,0,0)" style="filter:url(#filter_blur);opacity:0.7;fill-opacity:1" />
  <polygon fill="rgb(0,0,0)" points="339,496 554,496 562,504 562,512 339,512 339,496" stroke="rgb(0,0,0)" style="filter:url(#filter_blur);opacity:0.7;fill-opacity:1" />
  <polygon fill="rgb(0,0,0)" points="339,703 530,703 538,711 538,733 339,733 339,703" stroke="rgb(0,0,0)" style="filter:url(#filter_blur);opacity:0.7;fill-opacity:1" />
  <polygon fill="rgb(0,0,0)" points="76,952 299,952 307,960 307,968 76,968 76,952" stroke="rgb(0,0,0)" style="filter:url(#filter_blur);opacity:0.7;fill-opacity:1" />
  <rect fill="rgb(255,204,204)" height="964" style="filter:url(#filter_blur)" width="144" x="56" y="0" />
  <rect fill="rgb(204,255,204)" height="964" style="filter:url(#filter_blur)" width="144" x="248" y="0" />
  <rect fill="rgb(204,204,255)" height="964" style="filter:url(#filter_blur)" width="144" x="440" y="0" />
  <rect fill="rgb(0,0,0)" height="40" stroke="rgb(0,0,0)" style="filter:url(#filter_blur);opacity:0.7;fill-opacity:1" width="128" x="67" y="6" />
  <rect fill="rgb(0,0,0)" height="40" stroke="rgb(0,0,0)" style="filter:url(#filter_blur);opacity:0.7;fill-opacity:1" width="128" x="259" y="6" />
  <rect fill="rgb(0,0,0)" height="40" stroke="rgb(0,0,0)" style="filter:url(#filter_blur);opacity:0.7;fill-opacity:1" width="128" x="451" y="6" />
  <path d="M 128 40 L 128 996" fill="none" stroke="rgb(0,0,0)" stroke-dasharray="8 4" />
  <path d="M 320 40 L 320 996" fill="none" stroke="rgb(0,0,0)" stroke-dasharray="8 4" />
  <path d="M 512 40 L 512 996" fill="none" stroke="rgb(0,0,0)" stroke-dasharray="8 4" />
  <rect fill="rgb(255,255,255)" height="40" stroke="rgb(0,0,0)" width="128" x="64" y="0" />
  <text fill="rgb(0,0,0)" font-family="sans-serif" font-size="12" font-style="normal" font-weight="normal" text-anchor="middle" textLength="47" x="128.5" y="26">Teacher</text>
  <rect fill="rgb(255,255,255)" height="40" stroke="rgb(0,0,0)" width="128" x="256" y="0" />
  <text fill="rgb(0,0,0)" font-family="sans-serif" font-size="12" font-style="normal" font-weight="normal" text-anchor="middle" textLength="44" x="320.0" y="26">Student</text>
  <rect fill="rgb(255,255,255)" height="40" stroke="rgb(0,0,0)" width="128" x="448" y="0" />
  <text fill="rgb(0,0,0)" font-family="sans-serif" font-size="12" font-style="normal" font-weight="normal" text-anchor="middle" textLength="16" x="512.0" y="26">PC</text>
  <path d="M 328 58 L 504 58" fill="none" stroke="rgb(0,0,0)" />
  <polygon fill="rgb(0,0,0)" points="496,54 504,58 496,62" stroke="rgb(0,0,0)" />
  <path d="M 136 84 L 312 84" fill="none" stroke="rgb(0,0,0)" stroke-dasharray="4" />
  <polygon fill="rgb(0,0,0)" points="144,80 136,84 144,88" stroke="rgb(0,0,0)" />
  <path d="M 136 150 L 312 150" fill="none" stroke="rgb(0,0,0)" />
  <polygon fill="rgb(0,0,0)" points="304,146 312,150 304,154" stroke="rgb(0,0,0)" />
  <polygon fill="rgb(255,182,193)" points="336,142 627,142 635,150 635,158 336,158 336,142" stroke="rgb(0,0,0)" />
  <path d="M 627 142 L 627 150" fill="none" stroke="rgb(0,0,0)" />
  <path d="M 627 150 L 635 150" fill="none" stroke="rgb(0,0,0)" />
  <text fill="rgb(0,0,0)" font-family="sans-serif" font-size="12" font-style="normal" font-weight="normal" text-anchor="middle" textLength="275" x="481.5" y="156">前回までのExcel関数より高度な自動化を扱うと伝える</text>
  <path d="M 136 216 L 312 216" fill="none" stroke="rgb(0,0,0)" />
  <polygon fill="rgb(0,0,0)" points="304,212 312,216 304,220" stroke="rgb(0,0,0)" />
  <path d="M 328 256 L 504 256" fill="none" stroke="rgb(0,0,0)" />
  <polygon fill="rgb(0,0,0)" points="496,252 504,256 496,260" stroke="rgb(0,0,0)" />
  <path d="M 136 296 L 312 296" fill="none" stroke="rgb(0,0,0)" stroke-dasharray="4" />
  <polygon fill="rgb(0,0,0)" points="144,292 136,296 144,300" stroke="rgb(0,0,0)" />
  <path d="M 136 337 L 312 337" fill="none" stroke="rgb(0,0,0)" />
  <polygon fill="rgb(0,0,0)" points="304,333 312,337 304,341" stroke="rgb(0,0,0)" />
  <polygon fill="rgb(255,182,193)" points="336,322 477,322 485,330 485,353 336,353 336,322" stroke="rgb(0,0,0)" />
  <path d="M 477 322 L 477 330" fill="none" stroke="rgb(0,0,0)" />
  <path d="M 477 330 L 485 330" fill="none" stroke="rgb(0,0,0)" />
  <text fill="rgb(0,0,0)" font-family="sans-serif" font-size="12" font-style="normal" font-weight="normal" text-anchor="middle" textLength="125" x="406.5" y="337">セルの選択も記録される</text>
  <text fill="rgb(0,0,0)" font-family="sans-serif" font-size="12" font-style="normal" font-weight="normal" text-anchor="middle" textLength="75" x="381.5" y="351">ことに留意する</text>
  <path d="M 136 391 L 312 391" fill="none" stroke="rgb(0,0,0)" stroke-dasharray="4" />
  <polygon fill="rgb(0,0,0)" points="144,387 136,391 144,395" stroke="rgb(0,0,0)" />
  <path d="M 136 418 L 312 418" fill="none" stroke="rgb(0,0,0)" />
  <polygon fill="rgb(0,0,0)" points="304,414 312,418 304,422" stroke="rgb(0,0,0)" />
  <path d="M 328 472 L 504 472" fill="none" stroke="rgb(0,0,0)" />
  <polygon fill="rgb(0,0,0)" points="496,468 504,472 496,476" stroke="rgb(0,0,0)" />
  <path d="M 136 498 L 312 498" fill="none" stroke="rgb(0,0,0)" />
  <polygon fill="rgb(0,0,0)" points="304,494 312,498 304,502" stroke="rgb(0,0,0)" />
  <polygon fill="rgb(255,182,193)" points="336,490 551,490 559,498 559,506 336,506 336,490" stroke="rgb(0,0,0)" />
  <path d="M 551 490 L 551 498" fill="none" stroke="rgb(0,0,0)" />
  <path d="M 551 498 L 559 498" fill="none" stroke="rgb(0,0,0)" />
  <text fill="rgb(0,0,0)" font-family="sans-serif" font-size="12" font-style="normal" font-weight="normal" text-anchor="middle" textLength="199" x="443.5" y="504">最初は手順通りに操作することを勧める</text>
  <path d="M 328 552 L 504 552" fill="none" stroke="rgb(0,0,0)" />
  <polygon fill="rgb(0,0,0)" points="496,548 504,552 496,556" stroke="rgb(0,0,0)" />
  <path d="M 328 579 L 504 579" fill="none" stroke="rgb(0,0,0)" />
  <polygon fill="rgb(0,0,0)" points="496,575 504,579 496,583" stroke="rgb(0,0,0)" />
  <path d="M 328 618 L 504 618" fill="none" stroke="rgb(0,0,0)" stroke-dasharray="4" />
  <polygon fill="rgb(0,0,0)" points="336,614 328,618 336,622" stroke="rgb(0,0,0)" />
  <path d="M 136 671 L 312 671" fill="none" stroke="rgb(0,0,0)" stroke-dasharray="4" />
  <polygon fill="rgb(0,0,0)" points="144,667 136,671 144,675" stroke="rgb(0,0,0)" />
  <path d="M 136 712 L 312 712" fill="none" stroke="rgb(0,0,0)" />
  <polygon fill="rgb(0,0,0)" points="304,708 312,712 304,716" stroke="rgb(0,0,0)" />
  <polygon fill="rgb(255,182,193)" points="336,697 527,697 535,705 535,727 336,727 336,697" stroke="rgb(0,0,0)" />
  <path d="M 527 697 L 527 705" fill="none" stroke="rgb(0,0,0)" />
  <path d="M 527 705 L 535 705" fill="none" stroke="rgb(0,0,0)" />
  <text fill="rgb(0,0,0)" font-family="sans-serif" font-size="12" font-style="normal" font-weight="normal" text-anchor="middle" textLength="147" x="417.5" y="711">他の命令が記録されていると</text>
  <text fill="rgb(0,0,0)" font-family="sans-serif" font-size="12" font-style="normal" font-weight="normal" text-anchor="middle" textLength="175" x="431.5" y="725">マクロの動作が異なることを伝える</text>
  <path d="M 136 752 L 312 752" fill="none" stroke="rgb(0,0,0)" stroke-dasharray="4" />
  <polygon fill="rgb(0,0,0)" points="144,748 136,752 144,756" stroke="rgb(0,0,0)" />
  <path d="M 136 833 L 312 833" fill="none" stroke="rgb(0,0,0)" />
  <polygon fill="rgb(0,0,0)" points="304,829 312,833 304,837" stroke="rgb(0,0,0)" />
  <path d="M 136 874 L 312 874" fill="none" stroke="rgb(0,0,0)" />
  <polygon fill="rgb(0,0,0)" points="304,870 312,874 304,878" stroke="rgb(0,0,0)" />
  <path d="M 136 913 L 312 913" fill="none" stroke="rgb(0,0,0)" />
  <polygon fill="rgb(0,0,0)" points="304,909 312,913 304,917" stroke="rgb(0,0,0)" />
  <path d="M 328 954 L 504 954" fill="none" stroke="rgb(0,0,0)" />
  <polygon fill="rgb(0,0,0)" points="496,950 504,954 496,958" stroke="rgb(0,0,0)" />
  <polygon fill="rgb(255,182,193)" points="73,946 296,946 304,954 304,962 73,962 73,946" stroke="rgb(0,0,0)" />
  <path d="M 296 946 L 296 954" fill="none" stroke="rgb(0,0,0)" />
  <path d="M 296 954 L 304 954" fill="none" stroke="rgb(0,0,0)" />
  <text fill="rgb(0,0,0)" font-family="sans-serif" font-size="12" font-style="normal" font-weight="normal" text-anchor="middle" textLength="207" x="184.5" y="960">塗りつぶす色は「標準の色」から選ばせる</text>
  <text fill="rgb(0,0,0)" font-family="sans-serif" font-size="12" font-style="normal" font-weight="normal" text-anchor="middle" textLength="104" x="384.0" y="56">PC,Excelを起動する</text>
  <text fill="rgb(0,0,0)" font-family="sans-serif" font-size="12" font-style="normal" font-weight="normal" text-anchor="middle" textLength="121" x="251.5" y="82">Excelの起動を確認する</text>
  <text fill="rgb(0,0,0)" font-family="sans-serif" font-size="12" font-style="normal" font-weight="normal" text-anchor="middle" textLength="103" x="191.5" y="148">本時の内容を伝える</text>
  <text fill="rgb(0,0,0)" font-family="sans-serif" font-size="12" font-style="normal" font-weight="normal" text-anchor="middle" textLength="137" x="208.5" y="214">VBA開発環境を準備させる</text>
  <text fill="rgb(0,0,0)" font-family="sans-serif" font-size="12" font-style="normal" font-weight="normal" text-anchor="middle" textLength="124" x="394.0" y="254">「開発」タブを表示させる</text>
  <text fill="rgb(0,0,0)" font-family="sans-serif" font-size="12" font-style="normal" font-weight="normal" text-anchor="middle" textLength="150" x="237.0" y="294">「開発」タブの存在を確認する</text>
  <text fill="rgb(0,0,0)" font-family="sans-serif" font-size="12" font-style="normal" font-weight="normal" text-anchor="middle" textLength="123" x="201.5" y="335">マクロの概要を説明する</text>
  <text fill="rgb(0,0,0)" font-family="sans-serif" font-size="12" font-style="normal" font-weight="normal" text-anchor="middle" textLength="163" x="230.5" y="374">マクロの記録中は全操作が記録</text>
  <text fill="rgb(0,0,0)" font-family="sans-serif" font-size="12" font-style="normal" font-weight="normal" text-anchor="middle" textLength="106" x="259.0" y="389">されることを理解する</text>
  <text fill="rgb(0,0,0)" font-family="sans-serif" font-size="12" font-style="normal" font-weight="normal" text-anchor="middle" textLength="132" x="206.0" y="416">記録するマクロを設定する</text>
  <text fill="rgb(0,0,0)" font-family="sans-serif" font-size="12" font-style="normal" font-weight="normal" text-anchor="middle" textLength="166" x="415.0" y="455">マクロを起動するショートカットキ</text>
  <text fill="rgb(0,0,0)" font-family="sans-serif" font-size="12" font-style="normal" font-weight="normal" text-anchor="middle" textLength="66" x="365.0" y="470">ーを設定する</text>
  <text fill="rgb(0,0,0)" font-family="sans-serif" font-size="12" font-style="normal" font-weight="normal" text-anchor="middle" textLength="125" x="202.5" y="496">マクロの記録内容を示す</text>
  <text fill="rgb(0,0,0)" font-family="sans-serif" font-size="12" font-style="normal" font-weight="normal" text-anchor="middle" textLength="165" x="414.5" y="537">セルに枠線を引くマクロを記録す</text>
  <text fill="rgb(0,0,0)" font-family="sans-serif" font-size="12" font-style="normal" font-weight="normal" text-anchor="middle" textLength="10" x="337.0" y="550">る</text>
  <text fill="rgb(0,0,0)" font-family="sans-serif" font-size="12" font-style="normal" font-weight="normal" text-anchor="middle" textLength="131" x="397.5" y="577">記録したマクロを実行する</text>
  <text fill="rgb(0,0,0)" font-family="sans-serif" font-size="12" font-style="normal" font-weight="normal" text-anchor="middle" textLength="112" x="448.0" y="616">選択セルに枠線を引く</text>
  <text fill="rgb(0,0,0)" font-family="sans-serif" font-size="12" font-style="normal" font-weight="normal" text-anchor="middle" textLength="167" x="228.5" y="663">記録したマクロの動作を確認する</text>
  <text fill="rgb(0,0,0)" font-family="sans-serif" font-size="12" font-style="normal" font-weight="normal" text-anchor="middle" textLength="167" x="223.5" y="704">記録したマクロの内容を説明する</text>
  <text fill="rgb(0,0,0)" font-family="sans-serif" font-size="12" font-style="normal" font-weight="normal" text-anchor="middle" textLength="167" x="228.5" y="744">記録したマクロの内容を理解する</text>
  <text fill="rgb(0,0,0)" font-family="sans-serif" font-size="12" font-style="normal" font-weight="normal" text-anchor="middle" textLength="163" x="221.5" y="817">前回のcountif実習で用いたファ</text>
  <text fill="rgb(0,0,0)" font-family="sans-serif" font-size="12" font-style="normal" font-weight="normal" text-anchor="middle" textLength="51" x="165.5" y="831">イルを開く</text>
  <text fill="rgb(0,0,0)" font-family="sans-serif" font-size="12" font-style="normal" font-weight="normal" text-anchor="middle" textLength="164" x="222.0" y="858">条件でセルを塗り分けるマクロを</text>
  <text fill="rgb(0,0,0)" font-family="sans-serif" font-size="12" font-style="normal" font-weight="normal" text-anchor="middle" textLength="84" x="182.0" y="872">作ることを伝える</text>
  <text fill="rgb(0,0,0)" font-family="sans-serif" font-size="12" font-style="normal" font-weight="normal" text-anchor="middle" textLength="164" x="222.0" y="898">セルを塗りつぶすマクロを記録さ</text>
  <text fill="rgb(0,0,0)" font-family="sans-serif" font-size="12" font-style="normal" font-weight="normal" text-anchor="middle" textLength="21" x="150.5" y="911">せる</text>
  <text fill="rgb(0,0,0)" font-family="sans-serif" font-size="12" font-style="normal" font-weight="normal" text-anchor="middle" textLength="165" x="414.5" y="938">セルを塗りつぶす操作をマクロに</text>
  <text fill="rgb(0,0,0)" font-family="sans-serif" font-size="12" font-style="normal" font-weight="normal" text-anchor="middle" textLength="45" x="354.5" y="952">記録する</text>
  <path d="M 40 112 L 286 112" fill="none" stroke="rgb(0,0,0)" />
  <path d="M 40 116 L 286 116" fill="none" stroke="rgb(0,0,0)" />
  <path d="M 354 112 L 600 112" fill="none" stroke="rgb(0,0,0)" />
  <path d="M 354 116 L 600 116" fill="none" stroke="rgb(0,0,0)" />
  <rect fill="rgb(208,208,208)" height="20" stroke="rgb(0,0,0)" width="68" x="286" y="104" />
  <text fill="rgb(0,0,0)" font-family="sans-serif" font-size="11" font-style="normal" font-weight="normal" text-anchor="middle" textLength="48" x="320.0" y="120">導入(5分)</text>
  <path d="M 40 178 L 230 178" fill="none" stroke="rgb(0,0,0)" />
  <path d="M 40 182 L 230 182" fill="none" stroke="rgb(0,0,0)" />
  <path d="M 410 178 L 600 178" fill="none" stroke="rgb(0,0,0)" />
  <path d="M 410 182 L 600 182" fill="none" stroke="rgb(0,0,0)" />
  <rect fill="rgb(208,208,208)" height="20" stroke="rgb(0,0,0)" width="180" x="230" y="170" />
  <text fill="rgb(0,0,0)" font-family="sans-serif" font-size="11" font-style="normal" font-weight="normal" text-anchor="middle" textLength="160" x="320.0" y="186">展開: VBA開発環境の準備(15分)</text>
  <path d="M 40 780 L 251 780" fill="none" stroke="rgb(0,0,0)" />
  <path d="M 40 784 L 251 784" fill="none" stroke="rgb(0,0,0)" />
  <path d="M 388 780 L 600 780" fill="none" stroke="rgb(0,0,0)" />
  <path d="M 388 784 L 600 784" fill="none" stroke="rgb(0,0,0)" />
  <rect fill="rgb(208,208,208)" height="20" stroke="rgb(0,0,0)" width="137" x="251" y="772" />
  <text fill="rgb(0,0,0)" font-family="sans-serif" font-size="11" font-style="normal" font-weight="normal" text-anchor="middle" textLength="117" x="319.5" y="788">展開: 色の符号化(15分)</text>
</svg>
