<?xml version='1.0' encoding='UTF-8'?>
<!DOCTYPE svg PUBLIC "-//W3C//DTD SVG 1.0//EN" "http://www.w3.org/TR/2001/REC-SVG-20010904/DTD/svg10.dtd">
<svg viewBox="0 0 640 1079" xmlns="http://www.w3.org/2000/svg" xmlns:inkspace="http://www.inkscape.org/namespaces/inkscape" xmlns:xlink="http://www.w3.org/1999/xlink">
  <defs id="defs_block">
    <filter height="1.504" id="filter_blur" inkspace:collect="always" width="1.1575" x="-0.07875" y="-0.252">
      <feGaussianBlur id="feGaussianBlur3780" inkspace:collect="always" stdDeviation="4.2" />
    </filter>
  </defs>
  <title>blockdiag</title>
  <desc>seqdiag
{
	span_height = 0;
	activation = none;
	default_fontsize = 12;
	group { T [label="Teacher"]; color = "#ffcccc"; }
	group { S [label="Student"]; color = "#ccffcc"; }
	group { PC[label="PC"];      color = "#ccccff"; }

	=== 展開: 色の符号化(15分) ===
	T =&gt; S [label="RGB色空間を説明する", return="RGB色空間での色の作り方を理解する", note="絵の具と光の調色の違いを具体例で理解させる"]
	{
		S =&gt; PC [label="RGB関数を使い別の色で塗りつぶすよう、記録したマクロを書き換える", return="指定した色でセルを塗りつぶす"]
	}

	=== 展開: セルの指定方法(10分) ===
	T -&gt; S [label="指定したセルの色を塗るマクロを実装させる"]
	{
		S =&gt; PC [label="セルの選択を行う命令を追加する", return="指定したセルが塗られる", leftnote="VBAの入力は小文字で良い\nことを伝える"]
	}
	T -&gt; S [label="RangeとCellsでのセルの指定方法の違いを説明する", note="行と列の指定順が逆になることを注意する"]

	=== 展開: マクロを含むファイルの保存(5分) ===
	T -&gt; S [label="マクロを含むファイルの保存方法を説明する", note="マクロを含むか否かで拡張子が違う点を注意する"]
	{
		S =&gt; PC [label="マクロ有効ブックで保存する", return="拡張子*.xlsmで保存されることを確認する"]
	}
	T -&gt; S [label="VBAの能力の高さとマクロウイルスの危険性を伝える"]

	=== 展開: 塗り分けマクロの実装(30分) ===
	T -&gt; S [label="保存したファイルの開き方を説明する", return="VBAは信頼できるファイルでのみ有効化することを理解する"]
	{
		S -&gt; PC [label="情報バーからマクロを有効化する"]
	}
	T -&gt; S [label="VBAでの条件分岐の方法を説明する"]
	{
		S =&gt; PC [label="条件を満たせばセルを塗るよう修正する", return="セルの値により条件分岐して塗り分ける"]
	}
	T -&gt; S [label="VBAでの反復の方法を説明する", return="for構文を理解する", note="数学のΣ記号との類似性も伝える"]
	{
		S -&gt; PC [label="一列分のセルを判定するよう修正する"]
		S =&gt; PC [label="全列のセルを判定するよう修正する", return="二重ループに従ってセルを塗り分ける"]
	}
}
</desc>
  <polygon fill="rgb(0,0,0)" points="339,95 596,95 604,103 604,111 339,111 339,95" stroke="rgb(0,0,0)" style="filter:url(#filter_blur);opacity:0.7;fill-opacity:1" />
  <polygon fill="rgb(0,0,0)" points="142,346 299,346 307,354 307,377 142,377 142,346" stroke="rgb(0,0,0)" style="filter:url(#filter_blur);opacity:0.7;fill-opacity:1" />
  <polygon fill="rgb(0,0,0)" points="339,434 567,434 575,442 575,450 339,450 339,434" stroke="rgb(0,0,0)" style="filter:url(#filter_blur);opacity:0.7;fill-opacity:1" />
  <polygon fill="rgb(0,0,0)" points="339,516 604,516 612,524 612,532 339,532 339,516" stroke="rgb(0,0,0)" style="filter:url(#filter_blur);opacity:0.7;fill-opacity:1" />
  <polygon fill="rgb(0,0,0)" points="339,921 528,921 536,929 536,937 339,937 339,921" stroke="rgb(0,0,0)" style="filter:url(#filter_blur);opacity:0.7;fill-opacity:1" />
  <rect fill="rgb(255,204,204)" height="1055" style="filter:url(#filter_blur)" width="144" x="56" y="0" />
  <rect fill="rgb(204,255,204)" height="1055" style="filter:url(#filter_blur)" width="144" x="248" y="0" />
  <rect fill="rgb(204,204,255)" height="1055" style="filter:url(#filter_blur)" width="144" x="440" y="0" />
  <rect fill="rgb(0,0,0)" height="40" stroke="rgb(0,0,0)" style="filter:url(#filter_blur);opacity:0.7;fill-opacity:1" width="128" x="67" y="6" />
  <rect fill="rgb(0,0,0)" height="40" stroke="rgb(0,0,0)" style="filter:url(#filter_blur);opacity:0.7;fill-opacity:1" width="128" x="259" y="6" />
  <rect fill="rgb(0,0,0)" height="40" stroke="rgb(0,0,0)" style="filter:url(#filter_blur);opacity:0.7;fill-opacity:1" width="128" x="451" y="6" />
  <path d="M 128 40 L 128 1087" fill="none" stroke="rgb(0,0,0)" stroke-dasharray="8 4" />
  <path d="M 320 40 L 320 1087" fill="none" stroke="rgb(0,0,0)" stroke-dasharray="8 4" />
  <path d="M 512 40 L 512 1087" fill="none" stroke="rgb(0,0,0)" stroke-dasharray="8 4" />
  <rect fill="rgb(255,255,255)" height="40" stroke="rgb(0,0,0)" width="128" x="64" y="0" />
  <text fill="rgb(0,0,0)" font-family="sans-serif" font-size="12" font-style="normal" font-weight="normal" text-anchor="middle" textLength="47" x="128.5" y="26">Teacher</text>
  <rect fill="rgb(255,255,255)" height="40" stroke="rgb(0,0,0)" width="128" x="256" y="0" />
  <text fill="rgb(0,0,0)" font-family="sans-serif" font-size="12" font-style="normal" font-weight="normal" text-anchor="middle" textLength="44" x="320.0" y="26">Student</text>
  <rect fill="rgb(255,255,255)" height="40" stroke="rgb(0,0,0)" width="128" x="448" y="0" />
  <text fill="rgb(0,0,0)" font-family="sans-serif" font-size="12" font-style="normal" font-weight="normal" text-anchor="middle" textLength="16" x="512.0" y="26">PC</text>
  <path d="M 136 97 L 312 97" fill="none" stroke="rgb(0,0,0)" />
  <polygon fill="rgb(0,0,0)" points="304,93 312,97 304,101" stroke="rgb(0,0,0)" />
  <polygon fill="rgb(255,182,193)" points="336,89 593,89 601,97 601,105 336,105 336,89" stroke="rgb(0,0,0)" />
  <path d="M 593 89 L 593 97" fill="none" stroke="rgb(0,0,0)" />
  <path d="M 593 97 L 601 97" fill="none" stroke="rgb(0,0,0)" />
  <text fill="rgb(0,0,0)" font-family="sans-serif" font-size="12" font-style="normal" font-weight="normal" text-anchor="middle" textLength="241" x="464.5" y="103">絵の具と光の調色の違いを具体例で理解させる</text>
  <path d="M 328 152 L 504 152" fill="none" stroke="rgb(0,0,0)" />
  <polygon fill="rgb(0,0,0)" points="496,148 504,152 496,156" stroke="rgb(0,0,0)" />
  <path d="M 328 178 L 504 178" fill="none" stroke="rgb(0,0,0)" stroke-dasharray="4" />
  <polygon fill="rgb(0,0,0)" points="336,174 328,178 336,182" stroke="rgb(0,0,0)" />
  <path d="M 136 234 L 312 234" fill="none" stroke="rgb(0,0,0)" stroke-dasharray="4" />
  <polygon fill="rgb(0,0,0)" points="144,230 136,234 144,238" stroke="rgb(0,0,0)" />
  <path d="M 136 315 L 312 315" fill="none" stroke="rgb(0,0,0)" />
  <polygon fill="rgb(0,0,0)" points="304,311 312,315 304,319" stroke="rgb(0,0,0)" />
  <path d="M 328 355 L 504 355" fill="none" stroke="rgb(0,0,0)" />
  <polygon fill="rgb(0,0,0)" points="496,351 504,355 496,359" stroke="rgb(0,0,0)" />
  <polygon fill="rgb(255,182,193)" points="139,340 296,340 304,348 304,371 139,371 139,340" stroke="rgb(0,0,0)" />
  <path d="M 296 340 L 296 348" fill="none" stroke="rgb(0,0,0)" />
  <path d="M 296 348 L 304 348" fill="none" stroke="rgb(0,0,0)" />
  <text fill="rgb(0,0,0)" font-family="sans-serif" font-size="12" font-style="normal" font-weight="normal" text-anchor="middle" textLength="141" x="217.5" y="355">VBAの入力は小文字で良い</text>
  <text fill="rgb(0,0,0)" font-family="sans-serif" font-size="12" font-style="normal" font-weight="normal" text-anchor="middle" textLength="62" x="178.0" y="369">ことを伝える</text>
  <path d="M 328 381 L 504 381" fill="none" stroke="rgb(0,0,0)" stroke-dasharray="4" />
  <polygon fill="rgb(0,0,0)" points="336,377 328,381 336,385" stroke="rgb(0,0,0)" />
  <path d="M 136 436 L 312 436" fill="none" stroke="rgb(0,0,0)" />
  <polygon fill="rgb(0,0,0)" points="304,432 312,436 304,440" stroke="rgb(0,0,0)" />
  <polygon fill="rgb(255,182,193)" points="336,428 564,428 572,436 572,444 336,444 336,428" stroke="rgb(0,0,0)" />
  <path d="M 564 428 L 564 436" fill="none" stroke="rgb(0,0,0)" />
  <path d="M 564 436 L 572 436" fill="none" stroke="rgb(0,0,0)" />
  <text fill="rgb(0,0,0)" font-family="sans-serif" font-size="12" font-style="normal" font-weight="normal" text-anchor="middle" textLength="212" x="450.0" y="442">行と列の指定順が逆になることを注意する</text>
  <path d="M 136 518 L 312 518" fill="none" stroke="rgb(0,0,0)" />
  <polygon fill="rgb(0,0,0)" points="304,514 312,518 304,522" stroke="rgb(0,0,0)" />
  <polygon fill="rgb(255,182,193)" points="336,510 601,510 609,518 609,526 336,526 336,510" stroke="rgb(0,0,0)" />
  <path d="M 601 510 L 601 518" fill="none" stroke="rgb(0,0,0)" />
  <path d="M 601 518 L 609 518" fill="none" stroke="rgb(0,0,0)" />
  <text fill="rgb(0,0,0)" font-family="sans-serif" font-size="12" font-style="normal" font-weight="normal" text-anchor="middle" textLength="249" x="468.5" y="524">マクロを含むか否かで拡張子が違う点を注意する</text>
  <path d="M 328 544 L 504 544" fill="none" stroke="rgb(0,0,0)" />
  <polygon fill="rgb(0,0,0)" points="496,540 504,544 496,548" stroke="rgb(0,0,0)" />
  <path d="M 328 599 L 504 599" fill="none" stroke="rgb(0,0,0)" stroke-dasharray="4" />
  <polygon fill="rgb(0,0,0)" points="336,595 328,599 336,603" stroke="rgb(0,0,0)" />
  <path d="M 136 640 L 312 640" fill="none" stroke="rgb(0,0,0)" />
  <polygon fill="rgb(0,0,0)" points="304,636 312,640 304,644" stroke="rgb(0,0,0)" />
  <path d="M 136 722 L 312 722" fill="none" stroke="rgb(0,0,0)" />
  <polygon fill="rgb(0,0,0)" points="304,718 312,722 304,726" stroke="rgb(0,0,0)" />
  <path d="M 328 761 L 504 761" fill="none" stroke="rgb(0,0,0)" />
  <polygon fill="rgb(0,0,0)" points="496,757 504,761 496,765" stroke="rgb(0,0,0)" />
  <path d="M 136 804 L 312 804" fill="none" stroke="rgb(0,0,0)" />
  <polygon fill="rgb(0,0,0)" points="304,800 312,804 304,808" stroke="rgb(0,0,0)" />
  <path d="M 328 844 L 504 844" fill="none" stroke="rgb(0,0,0)" />
  <polygon fill="rgb(0,0,0)" points="496,840 504,844 496,848" stroke="rgb(0,0,0)" />
  <path d="M 328 884 L 504 884" fill="none" stroke="rgb(0,0,0)" stroke-dasharray="4" />
  <polygon fill="rgb(0,0,0)" points="336,880 328,884 336,888" stroke="rgb(0,0,0)" />
  <path d="M 136 923 L 312 923" fill="none" stroke="rgb(0,0,0)" />
  <polygon fill="rgb(0,0,0)" points="304,919 312,923 304,927" stroke="rgb(0,0,0)" />
  <polygon fill="rgb(255,182,193)" points="336,915 525,915 533,923 533,931 336,931 336,915" stroke="rgb(0,0,0)" />
  <path d="M 525 915 L 525 923" fill="none" stroke="rgb(0,0,0)" />
  <path d="M 525 923 L 533 923" fill="none" stroke="rgb(0,0,0)" />
  <text fill="rgb(0,0,0)" font-family="sans-serif" font-size="12" font-style="normal" font-weight="normal" text-anchor="middle" textLength="173" x="430.5" y="929">数学のΣ記号との類似性も伝える</text>
  <path d="M 328 964 L 504 964" fill="none" stroke="rgb(0,0,0)" />
  <polygon fill="rgb(0,0,0)" points="496,960 504,964 496,968" stroke="rgb(0,0,0)" />
  <path d="M 328 1004 L 504 1004" fill="none" stroke="rgb(0,0,0)" />
  <polygon fill="rgb(0,0,0)" points="496,1000 504,1004 496,1008" stroke="rgb(0,0,0)" />
  <path d="M 328 1045 L 504 1045" fill="none" stroke="rgb(0,0,0)" stroke-dasharray="4" />
  <polygon fill="rgb(0,0,0)" points="336,1041 328,1045 336,1049" stroke="rgb(0,0,0)" />
  <text fill="rgb(0,0,0)" font-family="sans-serif" font-size="12" font-style="normal" font-weight="normal" text-anchor="middle" textLength="116" x="198.0" y="95">RGB色空間を説明する</text>
  <text fill="rgb(0,0,0)" font-family="sans-serif" font-size="12" font-style="normal" font-weight="normal" text-anchor="middle" textLength="173" x="418.5" y="122">RGB関数を使い別の色で塗りつぶ</text>
  <text fill="rgb(0,0,0)" font-family="sans-serif" font-size="12" font-style="normal" font-weight="normal" text-anchor="middle" textLength="167" x="415.5" y="137">すよう、記録したマクロを書き換え</text>
  <text fill="rgb(0,0,0)" font-family="sans-serif" font-size="12" font-style="normal" font-weight="normal" text-anchor="middle" textLength="10" x="337.0" y="150">る</text>
  <text fill="rgb(0,0,0)" font-family="sans-serif" font-size="12" font-style="normal" font-weight="normal" text-anchor="middle" textLength="155" x="426.5" y="176">指定した色でセルを塗りつぶす</text>
  <text fill="rgb(0,0,0)" font-family="sans-serif" font-size="12" font-style="normal" font-weight="normal" text-anchor="middle" textLength="163" x="230.5" y="217">RGB色空間での色の作り方を理</text>
  <text fill="rgb(0,0,0)" font-family="sans-serif" font-size="12" font-style="normal" font-weight="normal" text-anchor="middle" textLength="33" x="295.5" y="232">解する</text>
  <text fill="rgb(0,0,0)" font-family="sans-serif" font-size="12" font-style="normal" font-weight="normal" text-anchor="middle" textLength="165" x="222.5" y="298">指定したセルの色を塗るマクロを</text>
  <text fill="rgb(0,0,0)" font-family="sans-serif" font-size="12" font-style="normal" font-weight="normal" text-anchor="middle" textLength="55" x="167.5" y="313">実装させる</text>
  <text fill="rgb(0,0,0)" font-family="sans-serif" font-size="12" font-style="normal" font-weight="normal" text-anchor="middle" textLength="169" x="416.5" y="347">セルの選択を行う命令を追加する</text>
  <text fill="rgb(0,0,0)" font-family="sans-serif" font-size="12" font-style="normal" font-weight="normal" text-anchor="middle" textLength="123" x="442.5" y="379">指定したセルが塗られる</text>
  <text fill="rgb(0,0,0)" font-family="sans-serif" font-size="12" font-style="normal" font-weight="normal" text-anchor="middle" textLength="168" x="224.0" y="420">RangeとCellsでのセルの指定方</text>
  <text fill="rgb(0,0,0)" font-family="sans-serif" font-size="12" font-style="normal" font-weight="normal" text-anchor="middle" textLength="102" x="191.0" y="434">法の違いを説明する</text>
  <text fill="rgb(0,0,0)" font-family="sans-serif" font-size="12" font-style="normal" font-weight="normal" text-anchor="middle" textLength="166" x="223.0" y="501">マクロを含むファイルの保存方法</text>
  <text fill="rgb(0,0,0)" font-family="sans-serif" font-size="12" font-style="normal" font-weight="normal" text-anchor="middle" textLength="55" x="167.5" y="516">を説明する</text>
  <text fill="rgb(0,0,0)" font-family="sans-serif" font-size="12" font-style="normal" font-weight="normal" text-anchor="middle" textLength="142" x="403.0" y="542">マクロ有効ブックで保存する</text>
  <text fill="rgb(0,0,0)" font-family="sans-serif" font-size="12" font-style="normal" font-weight="normal" text-anchor="middle" textLength="164" x="422.0" y="583">拡張子*.xlsmで保存されることを</text>
  <text fill="rgb(0,0,0)" font-family="sans-serif" font-size="12" font-style="normal" font-weight="normal" text-anchor="middle" textLength="45" x="481.5" y="597">確認する</text>
  <text fill="rgb(0,0,0)" font-family="sans-serif" font-size="12" font-style="normal" font-weight="normal" text-anchor="middle" textLength="167" x="223.5" y="623">VBAの能力の高さとマクロウイル</text>
  <text fill="rgb(0,0,0)" font-family="sans-serif" font-size="12" font-style="normal" font-weight="normal" text-anchor="middle" textLength="102" x="191.0" y="638">スの危険性を伝える</text>
  <text fill="rgb(0,0,0)" font-family="sans-serif" font-size="12" font-style="normal" font-weight="normal" text-anchor="middle" textLength="164" x="222.0" y="706">保存したファイルの開き方を説明</text>
  <text fill="rgb(0,0,0)" font-family="sans-serif" font-size="12" font-style="normal" font-weight="normal" text-anchor="middle" textLength="21" x="150.5" y="720">する</text>
  <text fill="rgb(0,0,0)" font-family="sans-serif" font-size="12" font-style="normal" font-weight="normal" text-anchor="middle" textLength="168" x="416.0" y="753">情報バーからマクロを有効化する</text>
  <text fill="rgb(0,0,0)" font-family="sans-serif" font-size="12" font-style="normal" font-weight="normal" text-anchor="middle" textLength="165" x="222.5" y="788">VBAでの条件分岐の方法を説明</text>
  <text fill="rgb(0,0,0)" font-family="sans-serif" font-size="12" font-style="normal" font-weight="normal" text-anchor="middle" textLength="21" x="150.5" y="802">する</text>
  <text fill="rgb(0,0,0)" font-family="sans-serif" font-size="12" font-style="normal" font-weight="normal" text-anchor="middle" textLength="166" x="415.0" y="828">条件を満たせばセルを塗るよう修</text>
  <text fill="rgb(0,0,0)" font-family="sans-serif" font-size="12" font-style="normal" font-weight="normal" text-anchor="middle" textLength="33" x="348.5" y="842">正する</text>
  <text fill="rgb(0,0,0)" font-family="sans-serif" font-size="12" font-style="normal" font-weight="normal" text-anchor="middle" textLength="165" x="421.5" y="868">セルの値により条件分岐して塗り</text>
  <text fill="rgb(0,0,0)" font-family="sans-serif" font-size="12" font-style="normal" font-weight="normal" text-anchor="middle" textLength="33" x="487.5" y="882">分ける</text>
  <text fill="rgb(0,0,0)" font-family="sans-serif" font-size="12" font-style="normal" font-weight="normal" text-anchor="middle" textLength="162" x="221.0" y="915">VBAでの反復の方法を説明する</text>
  <text fill="rgb(0,0,0)" font-family="sans-serif" font-size="12" font-style="normal" font-weight="normal" text-anchor="middle" textLength="169" x="416.5" y="948">一列分のセルを判定するよう修正</text>
  <text fill="rgb(0,0,0)" font-family="sans-serif" font-size="12" font-style="normal" font-weight="normal" text-anchor="middle" textLength="21" x="342.5" y="962">する</text>
  <text fill="rgb(0,0,0)" font-family="sans-serif" font-size="12" font-style="normal" font-weight="normal" text-anchor="middle" textLength="168" x="416.0" y="989">全列のセルを判定するよう修正す</text>
  <text fill="rgb(0,0,0)" font-family="sans-serif" font-size="12" font-style="normal" font-weight="normal" text-anchor="middle" textLength="10" x="337.0" y="1002">る</text>
  <text fill="rgb(0,0,0)" font-family="sans-serif" font-size="12" font-style="normal" font-weight="normal" text-anchor="middle" textLength="167" x="420.5" y="1029">二重ループに従ってセルを塗り分</text>
  <text fill="rgb(0,0,0)" font-family="sans-serif" font-size="12" font-style="normal" font-weight="normal" text-anchor="middle" textLength="21" x="493.5" y="1043">ける</text>
  <path d="M 40 58 L 251 58" fill="none" stroke="rgb(0,0,0)" />
  <path d="M 40 62 L 251 62" fill="none" stroke="rgb(0,0,0)" />
  <path d="M 388 58 L 600 58" fill="none" stroke="rgb(0,0,0)" />
  <path d="M 388 62 L 600 62" fill="none" stroke="rgb(0,0,0)" />
  <rect fill="rgb(208,208,208)" height="20" stroke="rgb(0,0,0)" width="137" x="251" y="50" />
  <text fill="rgb(0,0,0)" font-family="sans-serif" font-size="11" font-style="normal" font-weight="normal" text-anchor="middle" textLength="117" x="319.5" y="66">展開: 色の符号化(15分)</text>
  <path d="M 40 262 L 241 262" fill="none" stroke="rgb(0,0,0)" />
  <path d="M 40 266 L 241 266" fill="none" stroke="rgb(0,0,0)" />
  <path d="M 399 262 L 600 262" fill="none" stroke="rgb(0,0,0)" />
  <path d="M 399 266 L 600 266" fill="none" stroke="rgb(0,0,0)" />
  <rect fill="rgb(208,208,208)" height="20" stroke="rgb(0,0,0)" width="158" x="241" y="254" />
  <text fill="rgb(0,0,0)" font-family="sans-serif" font-size="11" font-style="normal" font-weight="normal" text-anchor="middle" textLength="138" x="320.0" y="270">展開: セルの指定方法(10分)</text>
  <path d="M 40 464 L 218 464" fill="none" stroke="rgb(0,0,0)" />
  <path d="M 40 468 L 218 468" fill="none" stroke="rgb(0,0,0)" />
  <path d="M 422 464 L 600 464" fill="none" stroke="rgb(0,0,0)" />
  <path d="M 422 468 L 600 468" fill="none" stroke="rgb(0,0,0)" />
  <rect fill="rgb(208,208,208)" height="20" stroke="rgb(0,0,0)" width="204" x="218" y="456" />
  <text fill="rgb(0,0,0)" font-family="sans-serif" font-size="11" font-style="normal" font-weight="normal" text-anchor="middle" textLength="184" x="320.0" y="472">展開: マクロを含むファイルの保存(5分)</text>
  <path d="M 40 668 L 227 668" fill="none" stroke="rgb(0,0,0)" />
  <path d="M 40 672 L 227 672" fill="none" stroke="rgb(0,0,0)" />
  <path d="M 412 668 L 600 668" fill="none" stroke="rgb(0,0,0)" />
  <path d="M 412 672 L 600 672" fill="none" stroke="rgb(0,0,0)" />
  <rect fill="rgb(208,208,208)" height="20" stroke="rgb(0,0,0)" width="185" x="227" y="660" />
  <text fill="rgb(0,0,0)" font-family="sans-serif" font-size="11" font-style="normal" font-weight="normal" text-anchor="middle" textLength="165" x="319.5" y="676">展開: 塗り分けマクロの実装(30分)</text>
</svg>
